<?xml version="1.0" standalone="no"?>
<!DOCTYPE svg PUBLIC "-//W3C//DTD SVG 20010904//EN"
 "http://www.w3.org/TR/2001/REC-SVG-20010904/DTD/svg10.dtd">
<svg version="1.0" xmlns="http://www.w3.org/2000/svg"
 width="200.000000pt" height="200.000000pt" viewBox="0 0 200.000000 200.000000"
 preserveAspectRatio="xMidYMid meet">
<metadata>
Created by potrace 1.16, written by Peter Selinger 2001-2019
</metadata>
<g transform="translate(0.000000,200.000000) scale(0.100000,-0.100000)"
fill="#000000" stroke="none">
<path d="M100 1000 l0 -190 650 0 650 0 0 190 0 190 -650 0 -650 0 0 -190z
m710 0 l0 -150 -335 0 -335 0 0 150 0 150 335 0 335 0 0 -150z"/>
<path d="M374 1015 c-4 -10 -14 -13 -29 -9 -16 4 -26 0 -34 -13 -6 -10 -11
-12 -11 -5 0 6 -8 12 -18 12 -10 0 -24 -6 -31 -12 -8 -8 -11 -8 -8 -2 4 7 -3
14 -15 17 -26 7 -23 9 -33 -22 -5 -16 -4 -21 4 -17 7 4 11 0 11 -12 0 -16 8
-18 63 -18 34 1 68 5 75 9 6 5 12 4 12 -1 0 -10 150 -10 166 0 6 4 14 4 18 0
4 -4 34 -8 67 -9 50 -2 59 0 59 15 0 14 2 14 9 3 13 -20 52 -22 74 -3 21 19
23 39 2 22 -13 -11 -14 -10 -9 4 3 9 9 16 13 16 4 0 7 9 8 20 2 24 -10 26 -27
5 -9 -11 -36 -14 -113 -13 -56 0 -106 0 -112 -2 -5 -1 -34 -2 -64 -1 -43 1
-52 4 -47 16 3 9 0 15 -10 15 -8 0 -17 -7 -20 -15z"/>
</g>
</svg>
